<svg width="36" height="36" viewBox="0 0 36 36" fill="none" xmlns="http://www.w3.org/2000/svg">
<g clip-path="url(#clip0_944_2350)">
<path d="M10.85 27.4405C11.2679 27.3507 11.6523 27.1458 11.9599 26.8489C12.2674 26.552 12.4856 26.175 12.59 25.7605C13.13 25.6205 13.65 25.4405 14.18 25.2505V24.0505C14.1841 23.879 14.2042 23.7083 14.24 23.5405C13.6452 23.7805 13.0376 23.9874 12.42 24.1605C12.2042 23.7333 11.8594 23.3849 11.4346 23.1646C11.0098 22.9443 10.5264 22.8632 10.0529 22.9329C9.57944 23.0026 9.13991 23.2195 8.79658 23.5529C8.45325 23.8863 8.22353 24.3193 8.13997 24.7905H7.68996C5.94047 22.7595 4.92594 20.1985 4.80996 17.5205C6.15383 15.637 7.85221 14.0337 9.80997 12.8005C10.1012 13.0984 10.4702 13.3088 10.8749 13.4078C11.2797 13.5068 11.7041 13.4904 12.1 13.3605C13.2733 15.2853 14.7881 16.9797 16.57 18.3605C16.6352 18.2765 16.7054 18.1963 16.78 18.1205L17.73 17.2105C15.985 15.9089 14.5079 14.2824 13.38 12.4205C13.6066 12.0611 13.7279 11.6453 13.73 11.2205V11.0005C17.3862 9.77182 21.3438 9.77182 25 11.0005C24.7303 12.1498 24.345 13.2688 23.85 14.3405H25.6C25.9714 13.458 26.2756 12.5488 26.51 11.6205C26.94 11.8105 27.35 12.0305 27.77 12.2605C28.3429 13.5538 28.6815 14.9387 28.77 16.3505C29.1471 16.1395 29.5683 16.0196 30 16.0005C30.2299 16.005 30.4584 16.0386 30.68 16.1005C30.5035 13.4031 29.5498 10.8144 27.9342 8.64718C26.3185 6.47994 24.11 4.82677 21.5753 3.88732C19.0407 2.94787 16.2882 2.7623 13.6504 3.35304C11.0125 3.94378 8.6021 5.28556 6.71019 7.21634C4.81829 9.14711 3.52581 11.5843 2.98884 14.2336C2.45187 16.8829 2.69337 19.6311 3.68418 22.1461C4.67498 24.6612 6.37272 26.8356 8.57238 28.4068C10.772 29.978 13.3795 30.8789 16.08 31.0005C15.826 30.358 15.826 29.643 16.08 29.0005C14.2395 28.8916 12.4493 28.3576 10.85 27.4405ZM16.76 5.00047C18.3671 5.0029 19.9573 5.32812 21.4363 5.95684C22.9154 6.58555 24.253 7.50495 25.37 8.66047C25.37 8.91047 25.37 9.17048 25.29 9.42048C21.2734 8.09672 16.9323 8.13539 12.94 9.53047C12.6005 9.24007 12.1832 9.05577 11.74 9.00047C11.4723 8.17397 11.2684 7.32816 11.13 6.47047C12.8564 5.52292 14.7907 5.01787 16.76 5.00047ZM9.65996 7.36048C9.78929 8.00868 9.95285 8.64957 10.15 9.28047C9.82283 9.48531 9.55306 9.76984 9.36591 10.1074C9.17876 10.445 9.08038 10.8245 9.07996 11.2105C9.07996 11.2105 9.07996 11.3105 9.07996 11.3605C7.569 12.3112 6.19611 13.4653 4.99996 14.7905C5.56018 11.8145 7.22479 9.16045 9.65996 7.36048Z" fill="white"/>
<path d="M25 21.1904C24.241 21.1984 23.5013 21.4311 22.8745 21.8591C22.2477 22.2872 21.7618 22.8914 21.4782 23.5955C21.1946 24.2995 21.126 25.0719 21.2811 25.8149C21.4362 26.5579 21.808 27.2383 22.3496 27.7701C22.8912 28.3019 23.5782 28.6613 24.324 28.8029C25.0697 28.9444 25.8406 28.8618 26.5394 28.5654C27.2382 28.269 27.8335 27.7722 28.2501 27.1377C28.6667 26.5032 28.8858 25.7595 28.88 25.0004C28.8642 23.9828 28.4481 23.0122 27.7219 22.2991C26.9957 21.586 26.0178 21.1877 25 21.1904ZM25 27.2704C24.56 27.2625 24.1321 27.1252 23.7697 26.8757C23.4073 26.6261 23.1264 26.2753 22.9621 25.8671C22.7979 25.4589 22.7574 25.0114 22.8459 24.5803C22.9344 24.1493 23.1479 23.7539 23.4597 23.4434C23.7716 23.1329 24.1679 22.9212 24.5993 22.8346C25.0308 22.748 25.4781 22.7904 25.8856 22.9565C26.2931 23.1226 26.6426 23.405 26.8906 23.7685C27.1386 24.132 27.274 24.5605 27.28 25.0004C27.2813 25.2998 27.2232 25.5964 27.1089 25.873C26.9947 26.1497 26.8266 26.4009 26.6145 26.6121C26.4024 26.8233 26.1505 26.9902 25.8733 27.1032C25.5961 27.2163 25.2993 27.2731 25 27.2704Z" fill="white"/>
<path d="M34.17 24.1402C34.1798 23.9073 34.118 23.6769 33.9928 23.4803C33.8677 23.2836 33.6852 23.13 33.47 23.0402L31.91 22.5802C31.8367 22.3669 31.75 22.1569 31.65 21.9502L32.37 20.6202C32.4832 20.4038 32.5238 20.1568 32.486 19.9156C32.4482 19.6743 32.3339 19.4516 32.16 19.2802L30.82 17.9602C30.6474 17.7879 30.4242 17.6755 30.183 17.6395C29.9418 17.6036 29.6954 17.6458 29.48 17.7602L28.14 18.4702C27.9215 18.3658 27.6979 18.2723 27.47 18.1902L27 16.7102C26.9212 16.4871 26.7748 16.2941 26.5813 16.1579C26.3878 16.0217 26.1567 15.9491 25.92 15.9502H24C23.7585 15.9519 23.5237 16.0303 23.3296 16.1741C23.1355 16.3179 22.9921 16.5196 22.92 16.7502L22.48 18.1802C22.2488 18.2621 22.0219 18.3555 21.8 18.4602L20.48 17.7602C20.2668 17.6469 20.0231 17.6043 19.7841 17.6385C19.545 17.6726 19.323 17.7818 19.15 17.9502L17.78 19.2602C17.6039 19.4324 17.4883 19.6569 17.4504 19.9003C17.4125 20.1436 17.4545 20.3927 17.57 20.6102L18.27 21.8902C18.1634 22.1035 18.07 22.3202 17.99 22.5402L16.58 23.0002C16.3451 23.0696 16.1391 23.2134 15.993 23.41C15.8469 23.6065 15.7687 23.8453 15.77 24.0902V25.9602C15.7814 26.1974 15.8665 26.4251 16.0135 26.6115C16.1605 26.7979 16.3621 26.9338 16.59 27.0002L18.06 27.4402C18.14 27.6535 18.2334 27.8669 18.34 28.0802L17.62 29.4302C17.5033 29.6467 17.4597 29.8951 17.4957 30.1384C17.5318 30.3817 17.6455 30.6069 17.82 30.7802L19.16 32.1002C19.3326 32.2725 19.5559 32.3849 19.7971 32.4209C20.0383 32.4569 20.2847 32.4146 20.5 32.3002L21.87 31.5802C22.0767 31.6735 22.2867 31.7602 22.5 31.8402L22.94 33.3102C23.0126 33.5424 23.1575 33.7453 23.3536 33.8892C23.5497 34.0332 23.7868 34.1106 24.03 34.1102H25.93C26.1699 34.1064 26.4024 34.027 26.5945 33.8834C26.7866 33.7397 26.9285 33.5392 27 33.3102L27.44 31.8402C27.65 31.7702 27.86 31.6802 28.06 31.5902L29.44 32.3202C29.6543 32.4322 29.8986 32.4732 30.1377 32.4372C30.3767 32.4013 30.5982 32.2903 30.77 32.1202L32.11 30.8002C32.2862 30.6281 32.4018 30.4035 32.4397 30.1602C32.4775 29.9168 32.4356 29.6677 32.32 29.4502L31.59 28.1102C31.6834 27.9102 31.7667 27.7102 31.84 27.5102L33.34 27.0702C33.5754 27.0054 33.7835 26.8662 33.9331 26.6733C34.0827 26.4804 34.1658 26.2443 34.17 26.0002V24.1402ZM32.57 25.6402L30.57 26.2202L30.45 26.6402C30.3392 27.0185 30.1883 27.3839 30 27.7302L29.79 28.1102L30.79 29.9002L29.93 30.7402L28.11 29.7402L27.74 29.9402C27.3838 30.1323 27.0084 30.2865 26.62 30.4002L26.2 30.5202L25.61 32.5202H24.38L23.79 30.5702L23.37 30.4502C22.9788 30.3398 22.6001 30.189 22.24 30.0002L21.87 29.8002L20.06 30.8002L19.2 29.9502L20.2 28.1302L19.98 27.7502C19.7757 27.3927 19.6113 27.0137 19.49 26.6202L19.36 26.2102L17.41 25.6302V24.4202L19.35 23.8402L19.47 23.4302C19.5901 23.033 19.7545 22.6506 19.96 22.2902L20.18 21.9002L19.18 20.1702L20.05 19.3302L21.82 20.2702L22.2 20.0602C22.571 19.8546 22.9633 19.6903 23.37 19.5702L23.78 19.4502L24.37 17.5402H25.6L26.18 19.4402L26.59 19.5602C26.993 19.6777 27.3819 19.8386 27.75 20.0402L28.13 20.2502L29.93 19.3002L30.79 20.1502L29.79 21.9202L30 22.3002C30.198 22.6583 30.3557 23.0373 30.47 23.4302L30.59 23.8502L32.52 24.4202L32.57 25.6402Z" fill="white"/>
</g>
<defs>
<clipPath id="clip0_944_2350">
<rect width="36" height="36" fill="white"/>
</clipPath>
</defs>
</svg>
