<svg width="32" height="32" viewBox="0 0 32 32" fill="none" xmlns="http://www.w3.org/2000/svg">
<path d="M9.18669 3.66699H3.66669V9.18699M28.3334 9.18699V3.66699H22.8134M22.8134 28.3337H28.3334V22.8137M7.03335 17.607V24.9403H14.3667V17.607H7.03335V17.607ZM9.18002 19.7537H12.2467V22.8203H9.18002V19.7537ZM7.03335 7.03366V14.367H14.3667V7.03366H7.03335ZM9.18002 9.18033H12.2467V12.247H9.18002V9.18033ZM17.6067 7.03366V14.367H24.94V7.03366H17.6067ZM19.7534 9.18033H22.82V12.247H19.7534V9.18033ZM21.2867 24.967C22.2014 24.7945 23.0229 24.2973 23.6 23.567C24.5172 22.512 25.0049 21.1511 24.9667 19.7537V17.607H17.6334V19.7537C17.5965 21.1509 18.084 22.5113 19 23.567C19.5705 24.2919 20.3817 24.7885 21.2867 24.967V24.967Z" stroke="white" stroke-linecap="round" stroke-linejoin="round"/>
<path d="M3.66669 22.8129V28.3329H9.18669M21.2867 22.8196C21.0248 22.6577 20.7831 22.4653 20.5667 22.2463C19.9917 21.547 19.7013 20.6567 19.7534 19.7529H22.82C22.8702 20.6576 22.5774 21.548 22 22.2463C21.7836 22.4653 21.5419 22.6577 21.28 22.8196H21.2867Z" stroke="white" stroke-linecap="round" stroke-linejoin="round"/>
</svg>
