<svg width="32" height="32" viewBox="0 0 32 32" fill="none" xmlns="http://www.w3.org/2000/svg">
<path d="M27 16.76V15.23L28.92 13.55C29.2739 13.2381 29.5062 12.8111 29.5757 12.3444C29.6453 11.8778 29.5476 11.4016 29.3 11L26.94 7.00004C26.7646 6.6963 26.5125 6.44402 26.2088 6.2685C25.9052 6.09298 25.5607 6.0004 25.21 6.00004C24.9927 5.99838 24.7765 6.03215 24.57 6.10004L22.14 6.92004C21.7205 6.64125 21.2828 6.39069 20.83 6.17004L20.32 3.65004C20.2286 3.18965 19.9781 2.77608 19.6125 2.48174C19.2468 2.1874 18.7893 2.03105 18.32 2.04004H13.64C13.1707 2.03105 12.7132 2.1874 12.3476 2.48174C11.9819 2.77608 11.7315 3.18965 11.64 3.65004L11.13 6.17004C10.6739 6.39064 10.233 6.64119 9.81001 6.92004L7.43001 6.06004C7.22131 6.00566 7.00518 5.9854 6.79001 6.00004C6.43928 6.0004 6.09482 6.09298 5.79117 6.2685C5.48752 6.44402 5.23537 6.6963 5.06001 7.00004L2.70001 11C2.4666 11.401 2.37986 11.8707 2.45466 12.3286C2.52946 12.7865 2.76113 13.2042 3.11001 13.51L5.00001 15.24V16.77L3.11001 18.45C2.75128 18.758 2.51326 19.1832 2.43821 19.65C2.36315 20.1168 2.4559 20.5951 2.70001 21L5.06001 25C5.23537 25.3038 5.48752 25.5561 5.79117 25.7316C6.09482 25.9071 6.43928 25.9997 6.79001 26C7.00736 26.0017 7.22353 25.9679 7.43001 25.9L9.86001 25.08C10.2795 25.3588 10.7172 25.6094 11.17 25.83L11.68 28.35C11.7715 28.8104 12.0219 29.224 12.3876 29.5183C12.7532 29.8127 13.2107 29.969 13.68 29.96H18.4C18.8693 29.969 19.3268 29.8127 19.6925 29.5183C20.0581 29.224 20.3086 28.8104 20.4 28.35L20.91 25.83C21.3661 25.6094 21.807 25.3589 22.23 25.08L24.65 25.9C24.8565 25.9679 25.0727 26.0017 25.29 26C25.6407 25.9997 25.9852 25.9071 26.2888 25.7316C26.5925 25.5561 26.8446 25.3038 27.02 25L29.3 21C29.5334 20.5991 29.6202 20.1294 29.5454 19.6715C29.4706 19.2136 29.2389 18.7959 28.89 18.49L27 16.76ZM25.5 24L22.23 23C21.4271 23.6801 19.9894 24.6417 19 25L18.4 28.35H13.5L13 25C12.0184 24.6316 10.8057 23.6709 10 23L6.5 24.45L4 20L6.5 17.5C6.3151 16.4649 6.3151 15.4352 6.5 14.4L4 12L6.79001 7.5L10 8.5C10.8029 7.81989 11.3582 7.5996 12.3476 7.24135L13.64 3.65004H18.32L19.6125 7.00004C20.594 7.36846 21.1943 7.82914 22 8.5L25.5 7.5L28 12L25.21 14.2312C25.3949 15.2663 25.3949 16.4649 25.21 17.5L28 20L25.5 24Z" fill="white" fill-opacity="0.83"/>
<path d="M16 22C14.8133 22 13.6533 21.6481 12.6666 20.9888C11.6799 20.3295 10.9109 19.3925 10.4567 18.2961C10.0026 17.1997 9.88378 15.9933 10.1153 14.8295C10.3468 13.6656 10.9182 12.5965 11.7574 11.7574C12.5965 10.9182 13.6656 10.3468 14.8295 10.1153C15.9933 9.88378 17.1997 10.0026 18.2961 10.4567C19.3925 10.9109 20.3295 11.6799 20.9888 12.6666C21.6481 13.6533 22 14.8133 22 16C22.008 16.7902 21.8583 17.574 21.5596 18.3056C21.2609 19.0371 20.8193 19.7018 20.2605 20.2605C19.7018 20.8193 19.0371 21.2609 18.3056 21.5596C17.574 21.8583 16.7902 22.008 16 22ZM16 12C15.4713 11.9877 14.9457 12.0827 14.4548 12.2794C13.9639 12.4761 13.5181 12.7702 13.1442 13.1442C12.7702 13.5181 12.4761 13.9639 12.2794 14.4548C12.0827 14.9457 11.9877 15.4713 12 16C11.9877 16.5287 12.0827 17.0543 12.2794 17.5452C12.4761 18.0361 12.7702 18.4819 13.1442 18.8559C13.5181 19.2298 13.9639 19.524 14.4548 19.7206C14.9457 19.9173 15.4713 20.0123 16 20C16.5287 20.0123 17.0543 19.9173 17.5452 19.7206C18.0361 19.524 18.4819 19.2298 18.8559 18.8559C19.2298 18.4819 19.524 18.0361 19.7206 17.5452C19.9173 17.0543 20.0123 16.5287 20 16C20.0123 15.4713 19.9173 14.9457 19.7206 14.4548C19.524 13.9639 19.2298 13.5181 18.8559 13.1442C18.4819 12.7702 18.0361 12.4761 17.5452 12.2794C17.0543 12.0827 16.5287 11.9877 16 12Z" fill="white" fill-opacity="0.83"/>
</svg>
